<svg width="107" height="32" viewBox="0 0 107 32" fill="none" xmlns="http://www.w3.org/2000/svg">
<rect width="32" height="32" rx="16" fill="url(#paint0_linear_6_10)"/>
<path d="M23.3037 19.697C18.8111 22.1511 16.7029 25.6637 17.299 25.9283C17.8951 26.1929 20.0111 25.7634 22.9838 24.0034C25.9565 22.2433 27.7963 17.2429 23.3037 19.697Z" fill="white" stroke="white" stroke-width="0.5"/>
<path d="M10.9372 14.3271C14.2125 17.495 15.2316 21.0406 14.6675 21.1351C14.1034 21.2295 12.4014 20.371 10.264 18.156C8.1266 15.9411 7.66195 11.1593 10.9372 14.3271Z" fill="white" stroke="white" stroke-width="0.5"/>
<path d="M14.3684 8.33879C13.9048 11.4595 15.5144 16.3076 15.9658 16.3053C16.4172 16.303 18.0807 11.4548 17.6414 8.33879C17.2023 5.22273 14.8319 5.21808 14.3684 8.33879Z" fill="white" stroke="white" stroke-width="0.5"/>
<path d="M8.6963 19.697C13.1889 22.1511 15.2971 25.6637 14.701 25.9283C14.1049 26.1929 11.9889 25.7634 9.01618 24.0034C6.04348 22.2433 4.20367 17.2429 8.6963 19.697Z" fill="white" stroke="white" stroke-width="0.5"/>
<path d="M21.0204 14.3271C17.7451 17.495 16.7261 21.0406 17.2902 21.1351C17.8543 21.2295 19.5563 20.371 21.6937 18.156C23.8311 15.9411 24.2957 11.1593 21.0204 14.3271Z" fill="white" stroke="white" stroke-width="0.5"/>
<path d="M42.4 24C41.9067 24 41.66 23.7533 41.66 23.26V10.54C41.66 10.1533 42.0133 9.96 42.72 9.96H43.22C43.9267 9.96 44.28 10.1533 44.28 10.54V21.76H49.02C49.3667 21.76 49.54 22.0467 49.54 22.62V23.14C49.54 23.7133 49.3667 24 49.02 24H42.4ZM54.0275 24.14C53.0275 24.14 52.2675 23.8733 51.7475 23.34C51.2408 22.7933 50.9875 21.98 50.9875 20.9V14.08C50.9875 13.6933 51.3408 13.5 52.0475 13.5H52.4275C53.1342 13.5 53.4875 13.6933 53.4875 14.08V20.56C53.4875 21.0267 53.6075 21.3933 53.8475 21.66C54.0875 21.9133 54.4675 22.04 54.9875 22.04C55.4142 22.04 55.7875 21.9067 56.1075 21.64C56.4408 21.3733 56.7075 21.0933 56.9075 20.8V14.08C56.9075 13.6933 57.2608 13.5 57.9675 13.5H58.3675C59.0742 13.5 59.4275 13.6933 59.4275 14.08V20.68C59.4275 21.32 59.4475 21.8267 59.4875 22.2C59.5275 22.56 59.5675 22.8333 59.6075 23.02C59.6475 23.1933 59.6675 23.3333 59.6675 23.44C59.6675 23.5467 59.5942 23.64 59.4475 23.72C59.3008 23.7867 59.1208 23.8467 58.9075 23.9C58.6942 23.94 58.4808 23.9733 58.2675 24C58.0675 24.0133 57.9208 24.02 57.8275 24.02C57.6275 24.02 57.4808 23.9467 57.3875 23.8C57.2942 23.64 57.2208 23.4533 57.1675 23.24C57.1275 23.0133 57.0875 22.8133 57.0475 22.64C56.7142 23.04 56.2808 23.3933 55.7475 23.7C55.2275 23.9933 54.6542 24.14 54.0275 24.14ZM65.3603 24.14C64.9736 24.14 64.607 24.0867 64.2603 23.98C63.927 23.8733 63.6336 23.7 63.3803 23.46C63.127 23.22 62.927 22.9067 62.7803 22.52C62.6336 22.12 62.5603 21.64 62.5603 21.08V15.56H62.0203C61.6603 15.56 61.4803 15.2733 61.4803 14.7V14.4C61.4803 13.8267 61.6603 13.54 62.0203 13.54H62.5603L62.8203 11.58C62.8736 11.1933 63.1803 11 63.7403 11H64.2203C64.7936 11 65.0803 11.1933 65.0803 11.58V13.54H66.3003C66.6603 13.54 66.8403 13.8267 66.8403 14.4V14.7C66.8403 15.2733 66.6603 15.56 66.3003 15.56H65.0803V21.04C65.0803 21.44 65.1536 21.72 65.3003 21.88C65.447 22.04 65.6536 22.12 65.9203 22.12C66.0936 22.12 66.227 22.1067 66.3203 22.08C66.427 22.0533 66.5136 22.04 66.5803 22.04C66.7003 22.04 66.8003 22.1333 66.8803 22.32C66.9603 22.5067 67.0203 22.7067 67.0603 22.92C67.1136 23.12 67.1403 23.2467 67.1403 23.3C67.1403 23.5533 67.0336 23.7467 66.8203 23.88C66.607 24 66.3603 24.0733 66.0803 24.1C65.8136 24.1267 65.5736 24.14 65.3603 24.14ZM73.6963 24.14C71.9363 24.14 70.6429 23.6733 69.8163 22.74C68.9896 21.8067 68.5763 20.5067 68.5763 18.84C68.5763 17.56 68.7696 16.52 69.1563 15.72C69.5563 14.92 70.1163 14.3333 70.8363 13.96C71.5563 13.5867 72.4029 13.4 73.3763 13.4C74.3896 13.4 75.2029 13.6267 75.8163 14.08C76.4429 14.52 76.9029 15.1333 77.1963 15.92C77.4896 16.6933 77.6363 17.58 77.6363 18.58C77.6363 18.6733 77.5763 18.8067 77.4563 18.98C77.3496 19.1533 77.2229 19.3067 77.0763 19.44C76.9296 19.5733 76.8163 19.64 76.7363 19.64H71.2163C71.2829 20.5333 71.5363 21.1733 71.9763 21.56C72.4163 21.9333 73.0163 22.12 73.7763 22.12C74.2563 22.12 74.6696 22.06 75.0163 21.94C75.3763 21.82 75.6696 21.7067 75.8963 21.6C76.1363 21.48 76.2963 21.42 76.3763 21.42C76.4963 21.42 76.6296 21.5133 76.7763 21.7C76.9229 21.8733 77.0429 22.0667 77.1363 22.28C77.2429 22.48 77.2963 22.64 77.2963 22.76C77.2963 22.9733 77.1763 23.1667 76.9363 23.34C76.7096 23.5 76.4096 23.6467 76.0363 23.78C75.6629 23.9 75.2696 23.9867 74.8563 24.04C74.4429 24.1067 74.0563 24.14 73.6963 24.14ZM71.2163 17.84H75.1363C75.1363 17.0933 74.9896 16.5067 74.6963 16.08C74.4163 15.64 73.9696 15.42 73.3563 15.42C72.7829 15.42 72.3029 15.6067 71.9163 15.98C71.5429 16.3533 71.3096 16.9733 71.2163 17.84ZM80.9375 24.04C80.2308 24.04 79.8775 23.8467 79.8775 23.46V16.9C79.8775 16.2733 79.8575 15.78 79.8175 15.42C79.7775 15.06 79.7375 14.7867 79.6975 14.6C79.6575 14.4133 79.6375 14.2733 79.6375 14.18C79.6375 14.0733 79.7108 13.9867 79.8575 13.92C80.0042 13.84 80.1842 13.78 80.3975 13.74C80.6108 13.6867 80.8175 13.6533 81.0175 13.64C81.2175 13.6133 81.3708 13.6 81.4775 13.6C81.6642 13.6 81.8042 13.6733 81.8975 13.82C82.0042 13.9667 82.0775 14.14 82.1175 14.34C82.1575 14.54 82.1975 14.7267 82.2375 14.9C82.4908 14.4867 82.7908 14.1333 83.1375 13.84C83.4975 13.5467 83.9375 13.4 84.4575 13.4C84.9242 13.4 85.2308 13.4867 85.3775 13.66C85.5375 13.8333 85.6175 14.0733 85.6175 14.38C85.6175 14.5 85.5908 14.68 85.5375 14.92C85.4975 15.1467 85.4375 15.36 85.3575 15.56C85.2775 15.7467 85.1775 15.84 85.0575 15.84C84.9242 15.84 84.7908 15.8133 84.6575 15.76C84.5242 15.6933 84.3308 15.66 84.0775 15.66C83.7842 15.66 83.5175 15.7333 83.2775 15.88C83.0375 16.0267 82.8375 16.1867 82.6775 16.36C82.5308 16.52 82.4375 16.6467 82.3975 16.74V23.46C82.3975 23.8467 82.0375 24.04 81.3175 24.04H80.9375ZM88.2217 24.04C87.5151 24.04 87.1617 23.8467 87.1617 23.46V16.9C87.1617 16.2733 87.1417 15.78 87.1017 15.42C87.0617 15.06 87.0217 14.7867 86.9817 14.6C86.9417 14.4133 86.9217 14.2733 86.9217 14.18C86.9217 14.0733 86.9951 13.9867 87.1417 13.92C87.2884 13.84 87.4684 13.78 87.6817 13.74C87.8951 13.6867 88.1017 13.6533 88.3017 13.64C88.5151 13.6133 88.6684 13.6 88.7617 13.6C88.9617 13.6 89.1084 13.6733 89.2017 13.82C89.2951 13.9667 89.3617 14.14 89.4017 14.34C89.4551 14.54 89.5017 14.7267 89.5417 14.9C89.8751 14.4867 90.3017 14.1333 90.8217 13.84C91.3551 13.5467 91.9351 13.4 92.5617 13.4C93.5751 13.4 94.3351 13.6733 94.8417 14.22C95.3484 14.7533 95.6017 15.56 95.6017 16.64V23.46C95.6017 23.8467 95.2484 24.04 94.5417 24.04H94.1617C93.4551 24.04 93.1017 23.8467 93.1017 23.46V16.98C93.1017 16.5133 92.9817 16.1533 92.7417 15.9C92.5017 15.6333 92.1217 15.5 91.6017 15.5C91.1751 15.5 90.7951 15.6333 90.4617 15.9C90.1417 16.1667 89.8817 16.4467 89.6817 16.74V23.46C89.6817 23.8467 89.3284 24.04 88.6217 24.04H88.2217ZM100.895 24.14C99.8545 24.14 99.0745 23.8733 98.5545 23.34C98.0345 22.7933 97.7745 22.08 97.7745 21.2C97.7745 20.64 97.8879 20.1333 98.1145 19.68C98.3412 19.2267 98.6879 18.84 99.1545 18.52C99.6345 18.1867 100.261 17.94 101.035 17.78C101.808 17.6067 102.741 17.5133 103.834 17.5V16.74C103.834 16.34 103.695 16.02 103.415 15.78C103.148 15.54 102.695 15.42 102.055 15.42C101.535 15.42 101.081 15.48 100.694 15.6C100.308 15.72 99.9945 15.84 99.7545 15.96C99.5279 16.08 99.3745 16.14 99.2945 16.14C99.1745 16.14 99.0412 16.0467 98.8945 15.86C98.7479 15.6733 98.6212 15.4667 98.5145 15.24C98.4212 15.0133 98.3745 14.8467 98.3745 14.74C98.3745 14.5267 98.5412 14.32 98.8745 14.12C99.2079 13.9067 99.6612 13.7333 100.235 13.6C100.821 13.4667 101.468 13.4 102.174 13.4C103.148 13.4 103.941 13.54 104.555 13.82C105.168 14.0867 105.621 14.4667 105.914 14.96C106.208 15.44 106.354 16.0067 106.354 16.66V20.68C106.354 21.32 106.374 21.8267 106.414 22.2C106.454 22.56 106.494 22.8333 106.534 23.02C106.574 23.1933 106.594 23.3333 106.594 23.44C106.594 23.5467 106.521 23.64 106.374 23.72C106.228 23.7867 106.048 23.8467 105.834 23.9C105.621 23.94 105.415 23.9733 105.215 24C105.015 24.0133 104.861 24.02 104.755 24.02C104.555 24.02 104.408 23.9467 104.314 23.8C104.221 23.64 104.154 23.4533 104.114 23.24C104.074 23.0133 104.034 22.8133 103.994 22.64C103.874 22.7867 103.681 22.98 103.415 23.22C103.148 23.46 102.808 23.6733 102.395 23.86C101.981 24.0467 101.481 24.14 100.895 24.14ZM101.575 22.12C102.081 22.12 102.521 21.9933 102.895 21.74C103.281 21.4733 103.594 21.16 103.834 20.8V19.28C103.341 19.28 102.881 19.3067 102.454 19.36C102.041 19.4133 101.668 19.5 101.334 19.62C101.014 19.74 100.768 19.9133 100.595 20.14C100.421 20.3533 100.334 20.6267 100.334 20.96C100.334 21.32 100.434 21.6067 100.634 21.82C100.848 22.02 101.161 22.12 101.575 22.12Z" fill="black"/>
<defs>
<linearGradient id="paint0_linear_6_10" x1="32" y1="0" x2="0" y2="32" gradientUnits="userSpaceOnUse">
<stop stop-color="#3AD0FF"/>
<stop offset="1" stop-color="#3A86FF"/>
</linearGradient>
</defs>
</svg>
